<?xml version="1.0" encoding="UTF-8" standalone="no"?>
<!DOCTYPE svg PUBLIC "-//W3C//DTD SVG 1.1//EN" "http://www.w3.org/Graphics/SVG/1.1/DTD/svg11.dtd">
<svg version="1.1" xmlns="http://www.w3.org/2000/svg" xmlns:xlink="http://www.w3.org/1999/xlink" preserveAspectRatio="xMidYMid meet" viewBox="0 0 640 640" width="640" height="640"><defs><path d="M640 321.09C640 497.1 496.61 640 320 640C143.39 640 0 497.1 0 321.09C0 145.08 143.39 2.18 320 2.18C496.61 2.18 640 145.08 640 321.09Z" id="c4e0Nb6DrD"></path><path d="M485.47 349.2C485.47 424.49 428.6 485.62 358.54 485.62C288.48 485.62 231.61 424.49 231.61 349.2C231.61 273.9 288.48 212.77 358.54 212.77C428.6 212.77 485.47 273.9 485.47 349.2Z" id="b298scd6kk"></path><path d="M421.24 346.74C421.24 381.34 393.15 409.44 358.54 409.44C323.93 409.44 295.84 381.34 295.84 346.74C295.84 312.13 323.93 284.04 358.54 284.04C393.15 284.04 421.24 312.13 421.24 346.74Z" id="c1g4Yr5Iwu"></path><path d="M423.14 244.76L423.14 53.82L485.47 53.82L485.47 359.05L423.14 244.76Z" id="bJOC8dK5x"></path><path d="M161.09 324.74L161.09 591.09L226.79 591.09L226.79 324.74" id="f22dAyEEz8"></path><path d="" id="a1cp8GmGWB"></path><path d="" id="b3s2SCwMzh"></path><path d="M226.79 329.42C227.36 325.44 227.71 322.96 227.85 321.97C228.59 316.85 229.88 311.83 231.7 306.99C233 303.56 231.15 308.45 231.7 306.99C236.01 295.6 241.49 284.68 248.05 274.43C254.85 263.81 246.08 277.51 248.05 274.43C269.63 240.74 304.82 218.13 344.44 212.51C348.09 211.99 357.22 210.7 371.82 208.63L359.42 206.44C345.81 206.44 337.3 206.44 333.9 206.44C275.6 206.44 220.3 232.3 182.92 277.06C179.48 281.18 194.72 262.93 182.92 277.06C171.67 290.53 164.37 306.86 161.85 324.24C161.75 324.93 161.5 326.65 161.09 329.42L226.79 329.42Z" id="d1swU5r92l"></path></defs><g><g><g><use xlink:href="#c4e0Nb6DrD" opacity="1" fill="#7f7c95" fill-opacity="1"></use></g><g><use xlink:href="#b298scd6kk" opacity="1" fill="#ff0850" fill-opacity="1"></use></g><g><use xlink:href="#c1g4Yr5Iwu" opacity="1" fill="#7f7c95" fill-opacity="1"></use></g><g><use xlink:href="#bJOC8dK5x" opacity="1" fill="#ff0850" fill-opacity="1"></use></g><g><use xlink:href="#f22dAyEEz8" opacity="1" fill="#ff0850" fill-opacity="1"></use></g><g><g><use xlink:href="#a1cp8GmGWB" opacity="1" fill-opacity="0" stroke="#000000" stroke-width="1" stroke-opacity="1"></use></g></g><g><g><use xlink:href="#b3s2SCwMzh" opacity="1" fill-opacity="0" stroke="#000000" stroke-width="1" stroke-opacity="1"></use></g></g><g><use xlink:href="#d1swU5r92l" opacity="1" fill="#ff0850" fill-opacity="1"></use></g></g></g></svg>