<?xml version="1.0" encoding="UTF-8" standalone="no"?>
<!DOCTYPE svg PUBLIC "-//W3C//DTD SVG 1.1//EN" "http://www.w3.org/Graphics/SVG/1.1/DTD/svg11.dtd">
<svg version="1.1" xmlns="http://www.w3.org/2000/svg" xmlns:xlink="http://www.w3.org/1999/xlink" preserveAspectRatio="xMidYMid meet" viewBox="0 0 640 640" width="640" height="640"><defs><path d="M421.02 345.55C421.02 420.84 364.14 481.97 294.09 481.97C224.03 481.97 167.15 420.84 167.15 345.55C167.15 270.25 224.03 209.12 294.09 209.12C364.14 209.12 421.02 270.25 421.02 345.55Z" id="j1ITLn3rzc"></path><path d="M356.79 344.09C356.79 378.69 328.69 406.79 294.09 406.79C259.48 406.79 231.39 378.69 231.39 344.09C231.39 309.48 259.48 281.39 294.09 281.39C328.69 281.39 356.79 309.48 356.79 344.09Z" id="euCLL7ReL"></path><path d="M358.69 229.12L358.69 18.18L421.02 18.18L421.02 355.4L358.69 229.12Z" id="gyNBgxydu"></path><path d="M320 637.82C143.39 637.82 0 494.92 0 318.91C0 142.9 143.39 0 320 0C496.61 0 640 142.9 640 318.91C640 494.92 496.61 637.82 320 637.82Z" id="aoMXVyevO"></path><path d="M358.54 484.89C288.48 484.89 231.61 423.76 231.61 348.47C231.61 273.17 288.48 212.04 358.54 212.04C428.6 212.04 485.47 273.17 485.47 348.47C485.47 423.76 428.6 484.89 358.54 484.89Z" id="c3HUNbTxuz"></path><path d="M358.54 408.62C323.93 408.62 295.84 380.52 295.84 345.92C295.84 311.31 323.93 283.22 358.54 283.22C393.15 283.22 421.24 311.31 421.24 345.92C421.24 380.52 393.15 408.62 358.54 408.62Z" id="d5BQoMooVW"></path><path d="M163.09 330.74L163.09 587.75L227.79 587.75L227.79 330.74" id="b59vlMHrWR"></path><path d="M423.14 51.57L485.47 51.57L485.47 348.47L423.14 237.29L423.14 51.57Z" id="a1COCZkLI6"></path><path d="M231.4 311.39C232.06 308.91 232.81 306.41 233.66 303.88C236.62 295.04 240.52 286.54 245.28 278.52C252.39 266.57 247.2 275.3 249.47 271.48C269.26 238.19 303.21 215.79 341.61 210.72C341.64 210.71 341.67 210.71 341.68 210.71C355.19 209.39 368.17 209.86 380.62 212.12C381.24 212.24 381.5 211.35 380.91 211.12C368.2 206.05 358.03 202.54 350.4 200.59C345.29 199.29 343.27 198.76 344.32 199.01C344.32 199.01 335.21 197.45 335.21 197.45C316.52 195.33 332.53 197.15 330.71 196.94C276.1 190.75 222.63 215.69 192.28 261.5C187.34 268.95 193.96 258.96 182.02 276.98C172.52 291.32 166.39 307.62 164.09 324.67C163.96 325.65 163.63 328.12 163.09 332.06C167.4 332.06 188.93 332.06 227.68 332.06C228.93 322.89 230.17 316 231.4 311.39Z" id="c4Z9bGtsg"></path><path d="M320 637.82C143.39 637.82 0 494.92 0 318.91C0 142.9 143.39 0 320 0C496.61 0 640 142.9 640 318.91C640 494.92 496.61 637.82 320 637.82Z" id="b2IpizOM0u"></path><path d="M358.54 484.89C288.48 484.89 231.61 423.76 231.61 348.47C231.61 273.17 288.48 212.04 358.54 212.04C428.6 212.04 485.47 273.17 485.47 348.47C485.47 423.76 428.6 484.89 358.54 484.89Z" id="b3C5bJ88Na"></path><path d="M360.44 408.62C325.83 408.62 297.74 380.52 297.74 345.92C297.74 311.31 325.83 283.22 360.44 283.22C395.05 283.22 423.14 311.31 423.14 345.92C423.14 380.52 395.05 408.62 360.44 408.62Z" id="a6VpZaJzn"></path><path d="M163.09 329.74L163.09 586.74L227.79 586.74L227.79 329.74" id="ayF1ulMp3"></path><path d="M423.14 51.57L485.47 51.57L485.47 348.47L423.14 237.29L423.14 51.57Z" id="lYrLw31jt"></path><path d="M231.4 311.39C232.06 308.91 232.81 306.41 233.66 303.88C236.62 295.04 240.52 286.54 245.28 278.52C252.39 266.57 247.2 275.3 249.47 271.48C269.26 238.19 303.21 215.79 341.61 210.72C341.64 210.71 341.67 210.71 341.68 210.71C355.19 209.39 368.17 209.86 380.62 212.12C381.24 212.24 381.5 211.35 380.91 211.12C368.2 206.05 358.03 202.54 350.4 200.59C345.29 199.29 343.27 198.76 344.32 199.01C344.32 199.01 335.21 197.45 335.21 197.45C316.52 195.33 332.53 197.15 330.71 196.94C276.1 190.75 222.63 215.69 192.28 261.5C187.34 268.95 193.96 258.96 182.02 276.98C172.52 291.32 166.39 307.62 164.09 324.67C163.96 325.65 163.63 328.12 163.09 332.06C167.4 332.06 188.93 332.06 227.68 332.06C228.93 322.89 230.17 316 231.4 311.39Z" id="d40V4ydo6p"></path></defs><g><g><g><use xlink:href="#j1ITLn3rzc" opacity="1" fill="#250fe1" fill-opacity="1"></use></g><g><use xlink:href="#euCLL7ReL" opacity="1" fill="#7f7c95" fill-opacity="1"></use></g><g><use xlink:href="#gyNBgxydu" opacity="1" fill="#250fe1" fill-opacity="1"></use><g><use xlink:href="#gyNBgxydu" opacity="1" fill-opacity="0" stroke="#000000" stroke-width="1" stroke-opacity="1"></use></g></g><g><use xlink:href="#aoMXVyevO" opacity="1" fill="#ffffff" fill-opacity="1"></use><g><use xlink:href="#aoMXVyevO" opacity="1" fill-opacity="0" stroke="#000000" stroke-width="1" stroke-opacity="0"></use></g></g><g><use xlink:href="#c3HUNbTxuz" opacity="1" fill="#1c3144" fill-opacity="1"></use><g><use xlink:href="#c3HUNbTxuz" opacity="1" fill-opacity="0" stroke="#000000" stroke-width="1" stroke-opacity="0"></use></g></g><g><use xlink:href="#d5BQoMooVW" opacity="1" fill="#fefefe" fill-opacity="1"></use><g><use xlink:href="#d5BQoMooVW" opacity="1" fill-opacity="0" stroke="#000000" stroke-width="1" stroke-opacity="0"></use></g></g><g><use xlink:href="#b59vlMHrWR" opacity="1" fill="#1c3144" fill-opacity="1"></use><g><use xlink:href="#b59vlMHrWR" opacity="1" fill-opacity="0" stroke="#000000" stroke-width="1" stroke-opacity="0"></use></g></g><g><use xlink:href="#a1COCZkLI6" opacity="1" fill="#1c3144" fill-opacity="1"></use><g><use xlink:href="#a1COCZkLI6" opacity="1" fill-opacity="0" stroke="#000000" stroke-width="1" stroke-opacity="0"></use></g></g><g><use xlink:href="#c4Z9bGtsg" opacity="1" fill="#1c3144" fill-opacity="1"></use><g><use xlink:href="#c4Z9bGtsg" opacity="1" fill-opacity="0" stroke="#000000" stroke-width="1" stroke-opacity="0"></use></g></g><g><use xlink:href="#b2IpizOM0u" opacity="1" fill="#343a40" fill-opacity="1"></use></g><g><use xlink:href="#b3C5bJ88Na" opacity="1" fill="#fefefe" fill-opacity="1"></use><g><use xlink:href="#b3C5bJ88Na" opacity="1" fill-opacity="0" stroke="#000000" stroke-width="1" stroke-opacity="0"></use></g></g><g><use xlink:href="#a6VpZaJzn" opacity="1" fill="#343a40" fill-opacity="1"></use><g><use xlink:href="#a6VpZaJzn" opacity="1" fill-opacity="0" stroke="#000000" stroke-width="1" stroke-opacity="0"></use></g></g><g><use xlink:href="#ayF1ulMp3" opacity="1" fill="#fefefe" fill-opacity="1"></use><g><use xlink:href="#ayF1ulMp3" opacity="1" fill-opacity="0" stroke="#000000" stroke-width="1" stroke-opacity="0"></use></g></g><g><use xlink:href="#lYrLw31jt" opacity="1" fill="#fefefe" fill-opacity="1"></use><g><use xlink:href="#lYrLw31jt" opacity="1" fill-opacity="0" stroke="#000000" stroke-width="1" stroke-opacity="0"></use></g></g><g><use xlink:href="#d40V4ydo6p" opacity="1" fill="#fefefe" fill-opacity="1"></use><g><use xlink:href="#d40V4ydo6p" opacity="1" fill-opacity="0" stroke="#000000" stroke-width="1" stroke-opacity="0"></use></g></g></g></g></svg>