<?xml version="1.0" encoding="UTF-8" standalone="no"?>
<!DOCTYPE svg PUBLIC "-//W3C//DTD SVG 1.1//EN" "http://www.w3.org/Graphics/SVG/1.1/DTD/svg11.dtd">
<svg version="1.1" xmlns="http://www.w3.org/2000/svg" xmlns:xlink="http://www.w3.org/1999/xlink" preserveAspectRatio="xMidYMid meet" viewBox="0 0 640 640" width="640" height="640"><defs><path d="M320 637.82C143.39 637.82 0 494.92 0 318.91C0 142.9 143.39 0 320 0C496.61 0 640 142.9 640 318.91C640 494.92 496.61 637.82 320 637.82Z" id="b1UCXUUcor"></path><path d="M358.54 484.89C288.48 484.89 231.61 423.76 231.61 348.47C231.61 273.17 288.48 212.04 358.54 212.04C428.6 212.04 485.47 273.17 485.47 348.47C485.47 423.76 428.6 484.89 358.54 484.89Z" id="b9FZC7bYk0"></path><path d="M358.54 409.39C323.93 409.39 295.84 381.29 295.84 346.69C295.84 312.08 323.93 283.99 358.54 283.99C393.15 283.99 421.24 312.08 421.24 346.69C421.24 381.29 393.15 409.39 358.54 409.39Z" id="a5bMiQnDN1"></path><path d="M163.09 329.74L163.09 586.74L227.79 586.74L227.79 329.74" id="f2fEE8HyH"></path><path d="M423.14 51.57L485.47 51.57L485.47 348.47L423.14 237.29L423.14 51.57Z" id="cBzfnJGfA"></path><path d="M231.4 311.39C232.06 308.91 232.81 306.41 233.66 303.88C236.62 295.04 240.52 286.54 245.28 278.52C252.39 266.57 247.2 275.3 249.47 271.48C269.26 238.19 303.21 215.79 341.61 210.72C341.64 210.71 341.67 210.71 341.68 210.71C355.19 209.39 368.17 209.86 380.62 212.12C381.24 212.24 381.5 211.35 380.91 211.12C368.2 206.05 358.03 202.54 350.4 200.59C345.29 199.29 343.27 198.76 344.32 199.01C344.32 199.01 335.21 197.45 335.21 197.45C316.52 195.33 332.53 197.15 330.71 196.94C276.1 190.75 222.63 215.69 192.28 261.5C187.34 268.95 193.96 258.96 182.02 276.98C172.52 291.32 166.39 307.62 164.09 324.67C163.96 325.65 163.63 328.12 163.09 332.06C167.4 332.06 188.93 332.06 227.68 332.06C228.93 322.89 230.17 316 231.4 311.39Z" id="a5BOtNNSUT"></path></defs><g><g><g><use xlink:href="#b1UCXUUcor" opacity="1" fill="#343a40" fill-opacity="1"></use></g><g><use xlink:href="#b9FZC7bYk0" opacity="1" fill="#ffffff" fill-opacity="1"></use><g><use xlink:href="#b9FZC7bYk0" opacity="1" fill-opacity="0" stroke="#000000" stroke-width="1" stroke-opacity="0"></use></g></g><g><use xlink:href="#a5bMiQnDN1" opacity="1" fill="#343a40" fill-opacity="1"></use><g><use xlink:href="#a5bMiQnDN1" opacity="1" fill-opacity="0" stroke="#000000" stroke-width="1" stroke-opacity="0"></use></g></g><g><use xlink:href="#f2fEE8HyH" opacity="1" fill="#ffffff" fill-opacity="1"></use><g><use xlink:href="#f2fEE8HyH" opacity="1" fill-opacity="0" stroke="#000000" stroke-width="1" stroke-opacity="0"></use></g></g><g><use xlink:href="#cBzfnJGfA" opacity="1" fill="#ffffff" fill-opacity="1"></use><g><use xlink:href="#cBzfnJGfA" opacity="1" fill-opacity="0" stroke="#000000" stroke-width="1" stroke-opacity="0"></use></g></g><g><use xlink:href="#a5BOtNNSUT" opacity="1" fill="#ffffff" fill-opacity="1"></use><g><use xlink:href="#a5BOtNNSUT" opacity="1" fill-opacity="0" stroke="#000000" stroke-width="1" stroke-opacity="0"></use></g></g></g></g></svg>