<?xml version="1.0" encoding="UTF-8" standalone="no"?>
<!DOCTYPE svg PUBLIC "-//W3C//DTD SVG 1.1//EN" "http://www.w3.org/Graphics/SVG/1.1/DTD/svg11.dtd">
<svg version="1.1" xmlns="http://www.w3.org/2000/svg" xmlns:xlink="http://www.w3.org/1999/xlink" preserveAspectRatio="xMidYMid meet" viewBox="0 0 640 640" width="640" height="640"><defs><path d="M640 318.91C640 494.92 496.61 637.82 320 637.82C143.39 637.82 0 494.92 0 318.91C0 142.9 143.39 0 320 0C496.61 0 640 142.9 640 318.91Z" id="c1gWb9mGJh"></path><path d="M485.47 348.47C485.47 423.76 428.6 484.89 358.54 484.89C288.48 484.89 231.61 423.76 231.61 348.47C231.61 273.17 288.48 212.04 358.54 212.04C428.6 212.04 485.47 273.17 485.47 348.47Z" id="e2BiUvg4lG"></path><path d="M421.24 345.96C421.24 380.57 393.15 408.66 358.54 408.66C323.93 408.66 295.84 380.57 295.84 345.96C295.84 311.36 323.93 283.26 358.54 283.26C393.15 283.26 421.24 311.36 421.24 345.96Z" id="a4aMIdrBw"></path><path d="M161.09 324.74L161.09 591.09L226.79 591.09L226.79 324.74" id="duEgFhx3X"></path><path d="M423.14 237.29L423.14 51.57L485.47 51.57L485.47 348.47L423.14 237.29Z" id="b1XXbbgoDO"></path><path d="" id="a1cp8GmGWB"></path><path d="" id="b3s2SCwMzh"></path><path d="M226.79 325.67C227.37 321.75 227.73 319.3 227.88 318.32C228.59 313.47 229.86 308.72 231.64 304.16C232.95 300.81 231.28 305.08 231.86 303.6C236.06 292.85 241.39 282.58 247.76 272.96C254.62 262.62 246.35 275.09 248.4 272C269.79 239.72 304.01 218.18 342.37 212.85C343.22 212.73 343.91 212.65 344.42 212.6C357.51 211.46 366.74 211.53 372.11 212.82C372.94 213.02 373.38 211.88 372.63 211.47C367.04 208.45 360.68 206.12 353.54 204.49C348.19 203.27 346.06 202.77 347.17 203C347.17 203 338.09 201.61 338.09 201.61C318.85 199.65 332.82 201.07 330.36 200.82C275.53 195.25 221.82 219.02 189.07 263.35C184.4 269.68 193.28 257.65 181.13 274.1C171 287.81 164.39 303.79 161.85 320.64C161.75 321.31 161.5 322.99 161.09 325.67L226.79 325.67Z" id="a5EKIYacJ"></path></defs><g><g><g><use xlink:href="#c1gWb9mGJh" opacity="1" fill="#1c3144" fill-opacity="1"></use></g><g><use xlink:href="#e2BiUvg4lG" opacity="1" fill="#a2aebb" fill-opacity="1"></use></g><g><use xlink:href="#a4aMIdrBw" opacity="1" fill="#1c3144" fill-opacity="1"></use></g><g><use xlink:href="#duEgFhx3X" opacity="1" fill="#a2aebb" fill-opacity="1"></use></g><g><use xlink:href="#b1XXbbgoDO" opacity="1" fill="#a2aebb" fill-opacity="1"></use></g><g><g><use xlink:href="#a1cp8GmGWB" opacity="1" fill-opacity="0" stroke="#000000" stroke-width="1" stroke-opacity="1"></use></g></g><g><g><use xlink:href="#b3s2SCwMzh" opacity="1" fill-opacity="0" stroke="#000000" stroke-width="1" stroke-opacity="1"></use></g></g><g><use xlink:href="#a5EKIYacJ" opacity="1" fill="#a2aebb" fill-opacity="1"></use></g></g></g></svg>