<?xml version="1.0" encoding="UTF-8" standalone="no"?>
<!DOCTYPE svg PUBLIC "-//W3C//DTD SVG 1.1//EN" "http://www.w3.org/Graphics/SVG/1.1/DTD/svg11.dtd">
<svg version="1.1" xmlns="http://www.w3.org/2000/svg" xmlns:xlink="http://www.w3.org/1999/xlink" preserveAspectRatio="xMidYMid meet" viewBox="0 0 640 640" width="800" height="800"><defs><path d="M640 318.91C640 494.92 496.61 637.82 320 637.82C143.39 637.82 0 494.92 0 318.91C0 142.9 143.39 0 320 0C496.61 0 640 142.9 640 318.91Z" id="dS8IjVqWh"></path><path d="M485.47 348.47C485.47 423.76 428.6 484.89 358.54 484.89C288.48 484.89 231.61 423.76 231.61 348.47C231.61 273.17 288.48 212.04 358.54 212.04C428.6 212.04 485.47 273.17 485.47 348.47Z" id="e4nIUx28wj"></path><path d="M421.24 345.96C421.24 380.57 393.15 408.66 358.54 408.66C323.93 408.66 295.84 380.57 295.84 345.96C295.84 311.36 323.93 283.26 358.54 283.26C393.15 283.26 421.24 311.36 421.24 345.96Z" id="axz5KwdQ7"></path><path d="M423.14 237.29L423.14 51.57L485.47 51.57L485.47 348.47L423.14 237.29Z" id="e5csM3qe4f"></path><path d="M161.09 324.74L161.09 591.09L226.79 591.09L226.79 324.74" id="n1yX1omqVp"></path><path d="" id="a1cp8GmGWB"></path><path d="" id="b3s2SCwMzh"></path><path d="M226.79 325.07C227.37 321.15 227.73 318.7 227.88 317.72C228.59 312.87 229.86 308.12 231.64 303.56C232.95 300.21 231.28 304.48 231.86 303C236.06 292.25 241.39 281.98 247.76 272.36C254.62 262.02 246.35 274.49 248.4 271.4C269.79 239.12 304.01 217.58 342.37 212.25C343.22 212.13 343.91 212.05 344.42 212C357.51 210.86 366.74 210.93 372.11 212.22C372.94 212.43 373.38 211.28 372.63 210.87C367.04 207.85 360.68 205.52 353.54 203.89C348.19 202.67 346.06 202.17 347.17 202.4C347.17 202.4 338.09 201.01 338.09 201.01C318.85 199.05 332.82 200.47 330.36 200.22C275.53 194.65 221.82 218.42 189.07 262.75C184.4 269.08 193.28 257.05 181.13 273.51C171 287.21 164.39 303.19 161.85 320.04C161.75 320.71 161.5 322.39 161.09 325.07L226.79 325.07Z" id="aStgx2qvv"></path></defs><g><g><g><use xlink:href="#dS8IjVqWh" opacity="1" fill="#a2aebb" fill-opacity="1"></use></g><g><use xlink:href="#e4nIUx28wj" opacity="1" fill="#1c3144" fill-opacity="1"></use></g><g><use xlink:href="#axz5KwdQ7" opacity="1" fill="#a2aebb" fill-opacity="1"></use></g><g><use xlink:href="#e5csM3qe4f" opacity="1" fill="#1c3144" fill-opacity="1"></use></g><g><use xlink:href="#n1yX1omqVp" opacity="1" fill="#1c3144" fill-opacity="1"></use></g><g><g><use xlink:href="#a1cp8GmGWB" opacity="1" fill-opacity="0" stroke="#000000" stroke-width="1" stroke-opacity="1"></use></g></g><g><g><use xlink:href="#b3s2SCwMzh" opacity="1" fill-opacity="0" stroke="#000000" stroke-width="1" stroke-opacity="1"></use></g></g><g><use xlink:href="#aStgx2qvv" opacity="1" fill="#1c3144" fill-opacity="1"></use></g></g></g></svg>